<?xml version="1.0" standalone="no"?>
<!DOCTYPE svg PUBLIC "-//W3C//DTD SVG 20010904//EN"
 "http://www.w3.org/TR/2001/REC-SVG-20010904/DTD/svg10.dtd">
<svg version="1.0" xmlns="http://www.w3.org/2000/svg"
 width="200.000000pt" height="200.000000pt" viewBox="0 0 200.000000 200.000000"
 preserveAspectRatio="xMidYMid meet">
<metadata>
Created by potrace 1.14, written by Peter Selinger 2001-2017
</metadata>
<g transform="translate(0.000000,200.000000) scale(0.100000,-0.100000)"
fill="#000000" stroke="none">
<path d="M0 1000 l0 -1000 1000 0 1000 0 0 1000 0 1000 -1000 0 -1000 0 0
-1000z m1830 0 l0 -830 -830 0 -830 0 0 830 0 830 830 0 830 0 0 -830z"/>
<path d="M480 1493 l-75 -14 2 -462 c1 -254 2 -472 2 -484 1 -18 11 -23 79
-35 42 -8 122 -14 177 -14 85 1 108 5 155 27 101 48 159 129 178 251 29 186
-39 366 -158 416 -48 20 -156 24 -205 7 -21 -8 -41 -12 -43 -10 -3 2 -4 78 -4
169 0 147 -2 164 -16 163 -10 0 -51 -7 -92 -14z m286 -474 c34 -28 51 -83 53
-166 2 -88 -16 -151 -55 -185 -23 -20 -86 -34 -136 -30 l-38 3 -1 57 c-3 163
0 315 6 320 3 4 25 12 48 18 45 11 98 4 123 -17z"/>
<path d="M1102 1430 l3 -75 90 0 90 0 5 -350 5 -350 28 -58 c22 -44 39 -63 75
-85 42 -24 57 -27 137 -27 92 1 195 25 195 47 0 18 -22 138 -25 138 -1 0 -18
-6 -37 -14 -80 -34 -163 -21 -186 29 -7 16 -11 156 -12 416 0 216 -3 395 -6
398 -3 3 -86 6 -185 6 l-180 0 3 -75z"/>
</g>
</svg>
